<?xml version="1.0" encoding="UTF-8"?>
<svg width="32px" height="32px" viewBox="0 0 32 32" version="1.1" xmlns="http://www.w3.org/2000/svg">
    <g stroke="none" stroke-width="1" fill="none" fill-rule="evenodd">
        <rect fill="#4A6CF7" x="0" y="0" width="32" height="32" rx="8"></rect>
        <path d="M16,6 C19.3137085,6 22,8.6862915 22,12 C22,14.2208051 20.7252272,16.1599867 18.8854167,17.1444549 L18.8854167,20.5 C18.8854167,21.3284271 18.2138439,22 17.3854167,22 L14.6145833,22 C13.7861561,22 13.1145833,21.3284271 13.1145833,20.5 L13.1145833,17.1444549 C11.2747728,16.1599867 10,14.2208051 10,12 C10,8.6862915 12.6862915,6 16,6 Z M16,8 C13.790861,8 12,9.790861 12,12 C12,13.4806548 12.8043389,14.7733789 14,15.4649889 L14,20 L18,20 L18,15.4649889 C19.1956611,14.7733789 20,13.4806548 20,12 C20,9.790861 18.209139,8 16,8 Z M16,10 C17.1045695,10 18,10.8954305 18,12 C18,13.1045695 17.1045695,14 16,14 C14.8954305,14 14,13.1045695 14,12 C14,10.8954305 14.8954305,10 16,10 Z" fill="#FFFFFF" fill-rule="nonzero"></path>
    </g>
</svg>
