<?xml version="1.0" encoding="UTF-8"?>
<svg width="24px" height="24px" viewBox="0 0 24 24" version="1.1" xmlns="http://www.w3.org/2000/svg">
    <g stroke="none" stroke-width="1" fill="none" fill-rule="evenodd">
        <circle fill="#4A6CF7" cx="12" cy="12" r="12"/>
        <path d="M12,6 C14.209139,6 16,7.790861 16,10 C16,11.4806548 15.1956611,12.7733789 14,13.4649889 L14,14 C14,15.1045695 13.1045695,16 12,16 C10.8954305,16 10,15.1045695 10,14 L10,13.4649889 C8.80433895,12.7733789 8,11.4806548 8,10 C8,7.790861 9.790861,6 12,6 Z M9.5,16.5 L14.5,16.5 C15.3284271,16.5 16,17.1715729 16,18 L16,18 C16,18.5522847 15.5522847,19 15,19 L9,19 C8.44771525,19 8,18.5522847 8,18 L8,18 C8,17.1715729 8.67157288,16.5 9.5,16.5 Z" fill="#FFFFFF" fill-rule="nonzero"/>
    </g>
</svg>
